<svg xmlns="http://www.w3.org/2000/svg" viewBox="0 0 67.26 67.26" xmlns:v="https://vecta.io/nano"><path d="M9 66.56l-1.8-9.63 12.39-5.36v15.61H9.08zM6.86 55.05l-2-10.73 14.71-6.39v11.59zM4.53 42.44l-1.9-10.36 17-7.37v11.2zM2.29 30.19L.1 18.26l-.1-.52.46-.28 18-10.39 1.11-.64v16.25zm46.61-6.94l18.36 4.34-.74 4.73L47 42zm17.28 11.28L65 42.5l-19 9.1.75-7.46zm-1.55 10.16L63.35 53 45 61.21l.77-7.48zM63 55.13l-1.84 12.05H44.43l.39-3.85zM21.36 0l-.05 25.5 26.23-2.7 1.13-11.31zm-.05 27.33v6.61l25.36-2.34.69-7zm0 8.44v6.88l24.45-1.85.72-7.35zm0 8.73l-.05 22.76h21.86l2.44-24.58z" fill="#3f3f41" fill-rule="evenodd"/></svg>