<svg xmlns="http://www.w3.org/2000/svg" viewBox="0 0 95.93 82.67"><defs><style>.cls-1{fill:#181c21;}</style></defs><g id="Layer_2" data-name="Layer 2"><g id="Layer_1-2" data-name="Layer 1"><path class="cls-1" d="M95.93,82.67s-1.47-.58-4-1.65c-1.25-.58-2.85-1-4.62-1.71s-3.83-1.24-6.05-1.91l-1.7-.51-1.79-.41L74,75.57c-1.28-.29-2.63-.48-4-.74s-2.74-.54-4.17-.68l-4.33-.57c-1.46-.16-2.95-.23-4.45-.36L54.8,73c-.75,0-1.51,0-2.27-.06L48,72.85,43.38,73c-.77,0-1.54,0-2.3.06l-2.24.18c-1.49.14-3,.21-4.42.36l-4.33.57c-1.43.14-2.81.45-4.17.68s-2.71.46-4,.75l-3.74.9-1.79.42-1.7.51c-2.22.67-4.28,1.22-6.06,1.91S5.26,80.45,4,81c-2.53,1.06-4,1.64-4,1.64s1.35-.87,3.75-2.33A49.3,49.3,0,0,1,8.2,78l1.35-.67c.23-.12.46-.24.7-.35l.74-.32,3.16-1.29,1.69-.69,1.78-.6,3.77-1.21c1.3-.39,2.65-.69,4-1s2.79-.71,4.24-.94l4.42-.76c1.5-.22,3-.35,4.58-.51L41,69.33c.77,0,1.53-.06,2.3-.09L48,69.08l4.69.16c.78,0,1.56,0,2.33.1l2.31.23c1.54.17,3.06.29,4.56.51l4.42.77c1.45.22,2.86.58,4.24.93s2.73.66,4,1L78.3,74l1.79.61,1.69.68,3.15,1.3.75.31.7.35,1.35.68c1.74.88,3.27,1.6,4.45,2.37C94.57,81.79,95.93,82.67,95.93,82.67Z"/><polygon class="cls-1" points="33.74 44.4 33.74 5.6 25.27 9.03 25.27 40.97 26.07 41.3 33.74 44.4"/><path class="cls-1" d="M41.22,47.42V71.5q3.12-.21,6.28-.23V32.33l2.24-.9,7.15-2.9,1.16-.47.38-.15,3.38-1.37,6.78-2.74,1.32-.53V9L47.59,0,37.76,4V46l1.22.49Z"/><path class="cls-1" d="M58.05,71.73V31.92l-7,2.82V71.3C53.42,71.36,55.75,71.51,58.05,71.73Z"/><path class="cls-1" d="M88.71,79.39h.08V34.74L69.93,27.11h0l-8.1,3.28V72.15A105.45,105.45,0,0,1,88.71,79.39Z"/><path class="cls-1" d="M15.46,76.49V48.36l-3.65,1.48V77.76C13,77.32,14.24,76.9,15.46,76.49Z"/><path class="cls-1" d="M37.64,71.79v-22l-3.9-1.58-8.47-3.44-.54-.21L19,46.92V75.38A105.45,105.45,0,0,1,37.64,71.79Z"/></g></g></svg>